<svg xmlns="http://www.w3.org/2000/svg" xml:space="preserve" width="77" height="77" viewBox="0 0 20.373 20.373"><path d="M9.984 16.48c-.106-.02-.28-.131-.386-.245-.443-.47-.39-1.202.107-1.506.8-.488 1.742.167 1.498 1.041-.143.513-.67.82-1.219.71zm.684-.769c.124-.221.121-.259-.033-.43-.205-.225-.476-.24-.7-.037-.203.184-.207.293-.021.56.195.278.573.232.754-.093z" style="fill:#000;stroke-width:.0904889"/><path d="M2.477 19.248c-.158-.174-.175-.372-.2-2.248-.024-1.763-.008-2.073.112-2.172.076-.064.2-.092.276-.063.11.042.137.233.137.96v.907h4.705v-2.038c0-2.281.05-2.535.56-2.846.276-.167.453-.182 2.2-.182 2.824 0 2.76-.07 2.76 3.028v2.038h4.705V9.34l-.791-.544c-4.832-3.324-6.542-4.469-6.673-4.469-.127 0-3.426 2.211-6.788 4.548l-.633.44-.045 2.234-.045 2.234h-.453l-.024-2.008-.025-2.008-.272.095c-.435.152-.708-.031-1.262-.845-.274-.401-.528-.808-.565-.904-.162-.425.094-.657 2.691-2.437 1.394-.955 3.511-2.413 4.705-3.239L9.724.934h.543c.542-.001.546 0 1.855.915l1.312.916.052-.636c.045-.546.087-.665.3-.848.237-.205.302-.212 1.712-.21 1.009.002 1.51.037 1.609.113.319.245.354.485.357 2.435l.003 1.929 1.396.942c1.431.966 1.667 1.22 1.512 1.63-.035.094-.288.5-.561.9-.554.812-.827.993-1.262.841l-.272-.095-.025 4.646c-.024 4.444-.032 4.653-.2 4.838-.162.18-.25.191-1.267.168-1.023-.024-1.092-.037-1.092-.207 0-.167.076-.184.996-.226l.995-.045.026-.928.026-.927h-4.712v1.9h.866c.846 0 .865.005.837.204l-.029.203-6.025.024-6.026.023zm5.03-1.213v-.95H2.802v.89c0 .49.027.917.06.95.033.033 1.092.06 2.353.06h2.292zm4.977-2.307c0-3.137-.007-3.265-.18-3.439-.17-.17-.303-.181-2.037-.181s-1.867.012-2.036.181c-.174.174-.18.302-.18 3.439v3.257h4.433zM5.32 6.964l4.025-2.76c.81-.553 1.034-.553 1.844 0 .339.231 2.153 1.474 4.031 2.762 1.878 1.288 3.471 2.363 3.54 2.39.144.055 1.185-1.362 1.1-1.498-.057-.094-9.026-6.253-9.355-6.425-.167-.087-.268-.088-.45-.005C9.777 1.555.746 7.74.678 7.853c-.026.042.18.409.46.814.35.509.55.722.642.687.073-.028 1.667-1.104 3.541-2.39zm11.557-5.239c-.035-.092-.354-.113-1.427-.093l-1.382.025V3.19l1.402.963 1.403.963.025-1.637c.013-.9.004-1.69-.021-1.755z" style="fill:#000;stroke-width:.0904889"/><path d="M9.769 10.31c-.956-.313-1.465-.977-1.465-1.91 0-1.121.858-1.993 1.963-1.993 1.706 0 2.611 2.067 1.46 3.335-.423.465-1.402.749-1.958.567Zm.272-1.963c0-1.546-.005-1.556-.552-1.192a1.445 1.445 0 0 0 .049 2.467c.196.117.39.193.43.168.04-.025.073-.674.073-1.443zm1.01 1.25c.341-.2.595-.609.665-1.067.07-.46-.236-1.087-.67-1.375-.548-.364-.553-.355-.553 1.198 0 1.549.009 1.567.558 1.244zm3.243 5.678c-.167-.167-.181-.301-.181-1.758V11.94l.238-.187c.338-.266 1.714-.276 2.037-.015.21.17.213.202.213 1.755 0 2.015.033 1.963-1.235 1.963-.77 0-.916-.024-1.072-.18zm1.79-1.742.024-1.425h-1.452v1.388c0 .763.029 1.416.064 1.45.035.036.35.053.701.039l.637-.027zM4.105 15.266c-.155-.173-.172-.344-.172-1.773 0-1.553.004-1.585.214-1.755.322-.261 1.698-.251 2.036.015l.238.187v1.577c0 1.993.035 1.94-1.252 1.94-.791 0-.91-.022-1.064-.191zm1.753-1.733.025-1.425H4.431v1.388c0 .763.028 1.416.063 1.45.036.036.351.053.702.039l.637-.027z" style="fill:#000;stroke-width:.0904889"/><path d="M40.008 36.031c-.256-.667-.258-8.41-.003-9.075.174-.453.297-.456 1.125-.027 3.246 1.678 3.824 6.228 1.096 8.623-1.262 1.108-1.922 1.25-2.218.479zm-3.784.119c-3.448-2.322-3.531-6.358-.185-8.91.648-.495 1.285-.794 1.414-.665.35.348.495 8.045.175 9.277l-.274 1.06zm19.459 19.079c-.111-.673-.204-3.023-.206-5.221l-.004-3.998h5.221v10.442h-4.809Zm-38.715-3.998v-5.22h5.314l-.21 2.005c-.115 1.103-.209 3.453-.209 5.221v3.215h-4.895z" style="fill:#6085ff;fill-opacity:1;stroke:#000;stroke-width:0;stroke-linecap:round;paint-order:stroke fill markers" transform="scale(.26458)"/><path d="M5.441 33.915c-1.195-1.396-2.75-4.093-2.494-4.323.723-.65 32.716-22.513 34.66-23.686l1.224-.738 1.224.749c1.54.942 17.484 11.812 27.11 18.482 4.007 2.776 7.36 5.245 7.454 5.486.174.455-.521 1.598-2.414 3.965l-1.104 1.382-3.49-2.332c-1.92-1.282-8.736-5.915-15.148-10.294-6.412-4.38-12.117-8.095-12.678-8.256-.692-.198-1.404-.157-2.21.126-.655.23-6.11 3.795-12.123 7.921-6.012 4.127-12.721 8.702-14.909 10.167l-3.977 2.664z" style="fill:#6085ff;fill-opacity:1;stroke:#000;stroke-width:0;stroke-linecap:round;paint-order:stroke fill markers" transform="scale(.26458)"/><path d="m58.339 15.383-5.13-3.473-.01-2.661-.01-2.662 3.103-.232c3.084-.232 6.837-.113 7.177.226.097.098.137 2.9.088 6.226l-.089 6.049z" style="fill:#ff7b60;fill-opacity:1;stroke:#000;stroke-width:0;stroke-linecap:round;paint-order:stroke fill markers" transform="scale(.26458)"/><path d="M30.674 59.39c0-11.64.023-12.098.652-12.727.61-.61 1.088-.653 7.443-.653 5.347 0 6.925.099 7.424.463.604.442.637 1.021.726 12.726l.093 12.264H30.674Zm10.5 2.237c1.046-.739 1.704-2.53 1.415-3.847-.285-1.296-1.636-2.573-2.992-2.827-3.732-.7-6.002 3.408-3.515 6.363 1.23 1.461 3.286 1.587 5.092.311z" style="fill:#609aff;fill-opacity:1;stroke:#000;stroke-width:0;stroke-linecap:round;paint-order:stroke fill markers" transform="scale(.26458)"/><path d="M5.303 33.35c-1.2-1.52-2.278-3.553-2.002-3.779 2.416-1.97 35.032-24.024 35.531-24.024 1.046 0 35.568 23.92 35.568 24.644 0 .428-2.653 4.184-3.19 4.516-.169.104-6.165-3.783-13.324-8.64C38.898 13.19 39.323 13.425 37.102 14.572c-1.264.653-7.796 4.993-19.807 13.162-4.936 3.357-9.367 6.356-9.847 6.664l-.873.561zM56.01 55.881c-.087-.314-.257-2.663-.378-5.22l-.22-4.65h5.282v10.44h-2.262c-1.876 0-2.29-.097-2.421-.57zm-25.336 9.924c0-7.958.38-18.374.687-18.873.376-.608 4.9-.913 10.19-.688 4.193.179 4.532.241 4.772.877.143.376.32 6.007.396 12.513l.137 11.829H30.674zm10.144-3.897c2.633-1.774 2.616-5.23-.032-6.6-2.535-1.31-5.41.011-5.764 2.649-.48 3.578 2.915 5.893 5.796 3.951zm-23.85-10.677v-5.22h2.649c2.587 0 2.644.016 2.452.733-.109.404-.2 2.754-.202 5.221l-.004 4.487h-4.895z" style="fill:#60ebff;fill-opacity:1;stroke:#000;stroke-width:0;stroke-linecap:round;paint-order:stroke fill markers" transform="scale(.26458)"/><path d="M35.813 35.55c-.66-.544-1.416-1.605-1.731-2.431-.528-1.382-.528-1.55-.005-2.92.516-1.353 2.418-3.441 3.134-3.441.388 0 .432 9.352.045 9.591-.15.092-.798-.267-1.443-.798zm4.299-1.695c-.039-3.706.06-6.915.218-7.073.254-.254 1.905 1.144 2.662 2.257 1.343 1.973.835 4.98-1.098 6.5-1.5 1.18-1.755.94-1.782-1.684z" style="fill:#60ebff;fill-opacity:1;stroke:#000;stroke-width:0;stroke-linecap:round;paint-order:stroke fill markers" transform="scale(.26458)"/><path d="M4.974 32.548c-.762-1.123-1.385-2.269-1.385-2.546 0-.543.5-.913 9.953-7.378 12.591-8.611 24.913-16.75 25.359-16.75 1.237 0 35.172 23.572 35.172 24.432 0 .383-1.857 3.112-2.535 3.726-.557.503-1.329.04-13.304-7.972-15.502-10.372-18.193-12.029-19.542-12.029-1.298 0-2.721.891-18.821 11.78-7.14 4.828-13.101 8.778-13.247 8.778-.147 0-.889-.918-1.65-2.041zM57.05 56.221c-.957-.146-.93-.008-1.391-7.519l-.165-2.692h5.2v10.442l-1.386-.049c-.763-.026-1.78-.109-2.259-.182zm-26.245 7.165c.113-4.441.293-9.95.4-12.24.194-4.152.196-4.163 1.055-4.404 1.346-.379 13.338-.296 13.728.094.21.211.42 4.876.559 12.482l.221 12.145H30.6zm10.462-1.746c1.911-1.678 2.075-4.088.392-5.772-2.397-2.396-6.743-.73-6.743 2.583 0 2.566 1.484 4.201 3.813 4.201 1.083 0 1.636-.22 2.538-1.012zM16.968 51.231v-5.22l1.713.004c3.371.009 3.182-.314 3.182 5.418v5.02h-4.895z" style="fill:#268997;fill-opacity:1;stroke:#000;stroke-width:0;stroke-linecap:round;paint-order:stroke fill markers" transform="scale(.26458)"/><path d="M35.599 34.987c-2.142-2.251-2.154-4.29-.041-6.662.688-.772 1.351-1.306 1.474-1.186.272.265.303 8.73.033 8.999-.104.105-.765-.413-1.466-1.151zm4.677-.603c-.247-1.647-.01-6.885.326-7.222.405-.405 2.516 2.1 2.79 3.31.352 1.564-.138 3.371-1.226 4.525-1.2 1.272-1.628 1.134-1.89-.613z" style="fill:#268997;fill-opacity:1;stroke:#000;stroke-width:0;stroke-linecap:round;paint-order:stroke fill markers" transform="scale(.26458)"/></svg>