<?xml version="1.0" encoding="UTF-8" standalone="no"?>
<!-- Created with Inkscape (http://www.inkscape.org/) -->

<svg
   width="77"
   height="77"
   viewBox="0 0 20.372916 20.372917"
   version="1.1"
   id="svg5"
   xml:space="preserve"
   inkscape:export-filename="home.png"
   inkscape:export-xdpi="62.337662"
   inkscape:export-ydpi="62.337662"
   inkscape:version="1.2.2 (b0a8486541, 2022-12-01)"
   sodipodi:docname="home.svg"
   xmlns:inkscape="http://www.inkscape.org/namespaces/inkscape"
   xmlns:sodipodi="http://sodipodi.sourceforge.net/DTD/sodipodi-0.dtd"
   xmlns="http://www.w3.org/2000/svg"
   xmlns:svg="http://www.w3.org/2000/svg"><sodipodi:namedview
     id="namedview7"
     pagecolor="#ffffff"
     bordercolor="#000000"
     borderopacity="0.25"
     inkscape:showpageshadow="2"
     inkscape:pageopacity="0.0"
     inkscape:pagecheckerboard="0"
     inkscape:deskcolor="#d1d1d1"
     inkscape:document-units="mm"
     showgrid="false"
     inkscape:zoom="3.0645342"
     inkscape:cx="40.462919"
     inkscape:cy="29.694561"
     inkscape:window-width="1910"
     inkscape:window-height="1044"
     inkscape:window-x="0"
     inkscape:window-y="0"
     inkscape:window-maximized="1"
     inkscape:current-layer="layer1" /><defs
     id="defs2" /><g
     inkscape:label="Layer 1"
     inkscape:groupmode="layer"
     id="layer1"><path
       style="fill:#000000;stroke-width:0.0904889"
       d="m 9.9842689,16.480412 c -0.105795,-0.0212 -0.279827,-0.131653 -0.386739,-0.245456 -0.442368,-0.470878 -0.390141,-1.202412 0.107507,-1.505844 0.8002981,-0.487967 1.7420871,0.166587 1.4979441,1.041087 -0.143059,0.512421 -0.670843,0.819991 -1.2187121,0.710213 z M 10.668456,15.71116 c 0.123739,-0.221458 0.120787,-0.259015 -0.03379,-0.429822 -0.204332,-0.225785 -0.475581,-0.240283 -0.6997601,-0.0374 -0.203081,0.183787 -0.207196,0.29335 -0.021,0.559185 0.1952321,0.278733 0.5731621,0.232674 0.7545501,-0.09196 z"
       id="path350" /><path
       style="fill:#000000;stroke-width:0.0904889"
       d="m 2.4770479,19.248 c -0.157747,-0.174127 -0.175352,-0.371804 -0.200201,-2.247942 -0.02336,-1.763439 -0.0074,-2.073516 0.111958,-2.172556 0.07656,-0.06354 0.200802,-0.09189 0.276089,-0.063 0.109601,0.04206 0.136886,0.233466 0.136886,0.960257 v 0.907729 h 2.352711 2.352711 v -2.038906 c 0,-2.280586 0.04991,-2.534113 0.56011,-2.845174 0.275327,-0.167862 0.453107,-0.18262 2.1998001,-0.18262 2.823581,0 2.759911,-0.06985 2.759911,3.027794 v 2.038906 h 2.352711 2.35271 V 12.985816 9.3391449 L 16.940667,8.7945236 c -4.832123,-3.3237594 -6.541591,-4.468524 -6.672812,-4.468524 -0.126431,0 -3.4259901,2.2109642 -6.7874081,4.5480966 l -0.633422,0.4404068 -0.04524,2.233792 -0.04524,2.233792 H 2.5303139 2.3040909 L 2.2797519,11.774015 2.2554129,9.7659438 1.9828759,9.8609508 C 1.5480929,10.012517 1.2752639,9.8299792 0.72053587,9.0163759 0.44680687,8.6149058 0.19293987,8.2078964 0.15638687,8.1119107 -0.00558213,7.686597 0.25001887,7.4551057 2.8470249,5.6750624 4.2405529,4.7199079 6.3579929,3.2623513 7.5524459,2.4360475 l 2.171733,-1.50237054 0.5429331,-5.067e-4 c 0.541738,-5.067e-4 0.545823,0.00151 1.855022,0.91582984 l 1.312089,0.9163351 0.05202,-0.6359134 c 0.04471,-0.5465172 0.08676,-0.665794 0.299136,-0.8484683 0.237694,-0.2044565 0.302942,-0.2124453 1.712507,-0.2096772 1.009025,0.00198 1.510113,0.037208 1.608974,0.1131111 0.318936,0.2448717 0.354078,0.4842821 0.357331,2.434373 l 0.0032,1.9288391 1.395577,0.9420508 c 1.431469,0.9662799 1.666944,1.2202405 1.512415,1.63115 -0.03522,0.093643 -0.287988,0.4983128 -0.561717,0.8992665 -0.553989,0.8114751 -0.826177,0.9929302 -1.261688,0.8411111 l -0.271884,-0.09478 -0.02499,4.6452061 c -0.02391,4.444326 -0.03255,4.653554 -0.199772,4.838274 -0.162771,0.179804 -0.249823,0.191334 -1.266844,0.167795 -1.023313,-0.02369 -1.092063,-0.03667 -1.092063,-0.206253 0,-0.167267 0.07541,-0.184406 0.995377,-0.226223 l 0.995378,-0.04524 0.02579,-0.927511 0.02579,-0.927511 h -2.355861 -2.355876 v 0.950133 0.950133 h 0.865938 c 0.846251,0 0.86528,0.0046 0.837022,0.2036 l -0.02892,0.2036 -6.0255311,0.02326 -6.025532,0.02326 z m 5.030154,-1.212936 v -0.950133 h -2.352711 -2.352711 v 0.889807 c 0,0.489395 0.02715,0.916955 0.06033,0.950133 0.03318,0.03318 1.091899,0.06033 2.352711,0.06033 h 2.292385 z m 4.9768871,-2.307466 c 0,-3.136948 -0.0067,-3.264302 -0.180977,-3.438577 -0.169207,-0.169207 -0.30163,-0.180978 -2.036,-0.180978 -1.7343701,0 -1.8667921,0.01177 -2.0359991,0.180978 -0.174275,0.174275 -0.180978,0.301629 -0.180978,3.438577 v 3.257599 h 2.2169771 2.216977 z M 5.3204659,6.963912 c 1.874584,-1.2863445 3.685769,-2.5282667 4.024855,-2.7598269 0.8099421,-0.5531064 1.0334951,-0.5531339 1.8435821,-2.263e-4 0.339086,0.2314353 2.153126,1.4744528 4.031199,2.7622613 1.878074,1.2878083 3.471257,2.3631808 3.540406,2.3897157 0.143426,0.055037 1.184223,-1.3619455 1.100213,-1.4978754 -0.05818,-0.094144 -9.027178,-6.252729 -9.35621,-6.4244679 -0.166758,-0.087039 -0.267552,-0.088321 -0.448865,-0.00571 -0.2795001,0.1273489 -9.31009313,6.3135984 -9.37881513,6.4247932 -0.02624,0.04246 0.180946,0.4091445 0.46041803,0.8148536 0.350256,0.5084667 0.54957,0.7217508 0.641506,0.6864719 0.07336,-0.028151 1.667126,-1.1036457 3.541711,-2.3899902 z M 16.876849,1.7249886 c -0.03527,-0.091924 -0.354349,-0.1128035 -1.427317,-0.0934 l -1.381887,0.024989 v 0.7670951 0.767095 L 15.470222,4.1537648 16.8728,5.1167618 16.89754,3.48007 c 0.01361,-0.9001805 0.0043,-1.6899673 -0.02069,-1.7550816 z"
       id="path330" /><path
       style="fill:#000000;stroke-width:0.0904889"
       d="M 9.7688379,10.30925 C 8.8130899,9.997273 8.3035039,9.3330061 8.3035039,8.3991264 c 0,-1.120612 0.858903,-1.9918826 1.9636081,-1.9918826 1.70623,0 2.611301,2.0671527 1.45986,3.3342725 C 11.303779,10.207225 10.325347,10.490907 9.7688379,10.30925 Z M 10.04089,8.3474142 c 0,-1.5464835 -0.0047,-1.5567096 -0.5521741,-1.1929069 -0.911997,0.6060705 -0.886134,1.9076086 0.04903,2.46738 0.196075,0.1173668 0.389495,0.1930028 0.429822,0.1680795 0.04033,-0.024923 0.07332,-0.6740725 0.07332,-1.4425526 z m 1.010288,1.2495624 C 11.392164,9.3962859 11.64631,8.9882587 11.716038,8.5295539 11.785818,8.0704984 11.479922,7.4431981 11.045508,7.1545073 10.49788,6.7905801 10.493334,6.8004451 10.493334,8.3527546 c 0,1.5490031 0.0084,1.5676311 0.557844,1.244222 z"
       id="path356" /><path
       style="fill:#000000;stroke-width:0.0904889"
       d="m 14.293867,15.275154 c -0.167131,-0.167132 -0.180978,-0.30163 -0.180978,-1.757966 v -1.576987 l 0.238426,-0.187546 c 0.338033,-0.265897 1.713765,-0.275778 2.036394,-0.01463 0.209767,0.169795 0.213624,0.201486 0.213624,1.754905 0,2.015432 0.03288,1.963198 -1.235624,1.963198 -0.770213,0 -0.915374,-0.02451 -1.071842,-0.180977 z m 1.789453,-1.741911 0.02492,-1.4252 h -0.726209 -0.726208 v 1.387496 c 0,0.763123 0.02876,1.416257 0.06391,1.45141 0.03515,0.03515 0.350732,0.05212 0.701288,0.0377 l 0.637376,-0.02621 z"
       id="path354" /><path
       style="fill:#000000;stroke-width:0.0904889"
       d="m 4.1052709,15.265526 c -0.155672,-0.172132 -0.17238,-0.343937 -0.17238,-1.772593 0,-1.553419 0.0039,-1.58511 0.213625,-1.754905 0.322629,-0.261151 1.698361,-0.25127 2.036394,0.01463 l 0.238425,0.187546 v 1.576987 c 0,1.992428 0.03456,1.938943 -1.252819,1.938943 -0.790981,0 -0.910192,-0.02137 -1.063245,-0.190605 z m 1.752806,-1.732283 0.02492,-1.4252 h -0.726208 -0.726209 v 1.387496 c 0,0.763123 0.02876,1.416257 0.06391,1.45141 0.03515,0.03515 0.350732,0.05212 0.701289,0.0377 l 0.637375,-0.02621 z"
       id="path352" /><path
       style="fill:#6085ff;fill-opacity:1;stroke:#000000;stroke-width:0;stroke-linecap:round;paint-order:stroke fill markers"
       d="m 40.00836,36.030994 c -0.256096,-0.667376 -0.258738,-8.409151 -0.0031,-9.07534 0.173682,-0.452608 0.296547,-0.45556 1.12523,-0.02703 3.245551,1.67834 3.823758,6.228164 1.095874,8.623277 -1.262211,1.108237 -1.921902,1.250731 -2.218007,0.479094 z"
       id="path36394"
       transform="scale(0.26458333)" /><path
       style="fill:#6085ff;fill-opacity:1;stroke:#000000;stroke-width:0;stroke-linecap:round;paint-order:stroke fill markers"
       d="m 36.223987,36.15084 c -3.447495,-2.323267 -3.531373,-6.359094 -0.185206,-8.91134 0.648319,-0.494497 1.284897,-0.793372 1.414616,-0.664166 0.349023,0.347641 0.494193,8.044941 0.174961,9.276899 l -0.274654,1.059923 z"
       id="path36396"
       transform="scale(0.26458333)" /><path
       style="fill:#6085ff;fill-opacity:1;stroke:#000000;stroke-width:0;stroke-linecap:round;paint-order:stroke fill markers"
       d="m 55.6828,55.228621 c -0.111243,-0.673022 -0.203877,-3.022482 -0.205852,-5.221022 l -0.0036,-3.997344 h 2.61051 2.610511 v 5.221021 5.221022 H 58.28972 55.885062 Z"
       id="path36398"
       transform="scale(0.26458333)" /><path
       style="fill:#6085ff;fill-opacity:1;stroke:#000000;stroke-width:0;stroke-linecap:round;paint-order:stroke fill markers"
       d="m 16.968321,51.231276 v -5.221021 h 2.656996 2.656997 l -0.209643,2.00575 c -0.115303,1.103163 -0.209642,3.452623 -0.209642,5.221022 v 3.215271 h -2.447354 -2.447354 z"
       id="path36400"
       transform="scale(0.26458333)" /><path
       style="fill:#6085ff;fill-opacity:1;stroke:#000000;stroke-width:0;stroke-linecap:round;paint-order:stroke fill markers"
       d="M 5.441152,33.91476 C 4.2463038,32.518848 2.690191,29.821983 2.9466164,29.591535 3.6698832,28.941538 35.663136,7.0790178 37.607673,5.9059763 l 1.223677,-0.7381825 1.223677,0.7490175 c 1.539715,0.9424662 17.483877,11.8123837 27.109375,18.4817947 4.007197,2.776544 7.361546,5.245623 7.454109,5.486841 0.174565,0.454908 -0.520849,1.597451 -2.413235,3.964868 L 71.100511,35.2324 67.610591,32.900214 C 65.691138,31.617511 58.874712,26.984935 52.462977,22.605599 46.051246,18.226263 40.346056,14.511465 39.78478,14.350493 c -0.691691,-0.198374 -1.403975,-0.157853 -2.210643,0.125761 -0.654579,0.23014 -6.109323,3.794544 -12.121656,7.920898 -6.012333,4.126354 -12.72147,8.701446 -14.909194,10.166872 l -3.9776791,2.664409 z"
       id="path36402"
       transform="scale(0.26458333)" /><path
       style="fill:#ff7b60;fill-opacity:1;stroke:#000000;stroke-width:0;stroke-linecap:round;paint-order:stroke fill markers"
       d="M 58.338866,15.383044 53.209687,11.910456 53.199423,9.2488199 53.18916,6.5871834 56.291958,6.3545572 c 3.083644,-0.2311901 6.83732,-0.1126624 7.176594,0.2266113 0.09757,0.097569 0.137369,2.8992373 0.08845,6.2259305 l -0.08895,6.048533 z"
       id="path36404"
       transform="scale(0.26458333)" /><path
       style="fill:#609aff;fill-opacity:1;stroke:#000000;stroke-width:0;stroke-linecap:round;paint-order:stroke fill markers"
       d="m 30.673503,59.389123 c 0,-11.638528 0.02352,-12.097131 0.652628,-12.726241 0.61081,-0.61081 1.087713,-0.652627 7.44285,-0.652627 5.347398,0 6.924815,0.09836 7.423641,0.462912 0.604588,0.441843 0.637647,1.021057 0.726347,12.726241 l 0.09293,12.263328 H 38.8427 30.673503 Z m 10.500128,2.238133 c 1.045941,-0.739145 1.704655,-2.529639 1.415307,-3.847036 -0.284675,-1.296114 -1.635977,-2.572889 -2.992392,-2.827354 -3.731947,-0.700117 -6.001212,3.408296 -3.514741,6.363299 1.229593,1.461288 3.286397,1.586951 5.091826,0.311091 z"
       id="path40684"
       transform="scale(0.26458333)" /><path
       style="fill:#60ebff;fill-opacity:1;stroke:#000000;stroke-width:0;stroke-linecap:round;paint-order:stroke fill markers"
       d="M 5.3032368,33.349122 C 4.1027319,31.83037 3.0246943,29.796505 3.3007946,29.571243 5.7167248,27.600155 38.333026,5.5473357 38.832348,5.5473357 c 1.045634,0 35.567213,23.9190713 35.567213,24.6435633 0,0.428089 -2.652948,4.184409 -3.18949,4.51601 -0.168939,0.10441 -6.164983,-3.783316 -13.32454,-8.639393 C 38.897582,13.188653 39.322661,13.423788 37.101997,14.570995 c -1.264013,0.652996 -7.795594,4.993333 -19.807362,13.162298 -4.935497,3.356534 -9.3664008,6.355329 -9.8464526,6.663988 l -0.8728207,0.5612 z"
       id="path43103"
       transform="scale(0.26458333)" /><path
       style="fill:#60ebff;fill-opacity:1;stroke:#000000;stroke-width:0;stroke-linecap:round;paint-order:stroke fill markers"
       d="m 56.010766,55.881249 c -0.08756,-0.314077 -0.257971,-2.663537 -0.378694,-5.221022 l -0.219496,-4.649972 h 2.640901 2.640901 v 5.221021 5.221022 h -2.262207 c -1.876294,0 -2.289365,-0.09742 -2.421405,-0.571049 z"
       id="path49039"
       transform="scale(0.26458333)" /><path
       style="fill:#60ebff;fill-opacity:1;stroke:#000000;stroke-width:0;stroke-linecap:round;paint-order:stroke fill markers"
       d=""
       id="path49041"
       transform="scale(0.26458333)" /><path
       style="fill:#60ebff;fill-opacity:1;stroke:#000000;stroke-width:0;stroke-linecap:round;paint-order:stroke fill markers"
       d="m 30.673503,65.804717 c 0,-7.957916 0.379684,-18.373889 0.687949,-18.872672 0.375594,-0.607724 4.900161,-0.913184 10.189053,-0.687877 4.193073,0.178625 4.532274,0.240922 4.772682,0.876552 0.142341,0.376343 0.320546,6.007256 0.396012,12.513138 l 0.13721,11.828878 h -8.091453 -8.091453 z m 10.144298,-3.896456 c 2.633273,-1.774563 2.616428,-5.230281 -0.03217,-6.599925 -2.534179,-1.310475 -5.410229,0.01107 -5.763908,2.648516 -0.479814,3.578054 2.915398,5.8927 5.79608,3.951409 z"
       id="path49043"
       transform="scale(0.26458333)" /><path
       style="fill:#60ebff;fill-opacity:1;stroke:#000000;stroke-width:0;stroke-linecap:round;paint-order:stroke fill markers"
       d="m 16.968321,51.231276 v -5.221021 h 2.648569 c 2.587421,0 2.644027,0.01695 2.45181,0.734206 -0.108218,0.403813 -0.198765,2.753273 -0.201215,5.221022 l -0.0045,4.486815 h -2.447354 -2.447354 z"
       id="path49045"
       transform="scale(0.26458333)" /><path
       style="fill:#60ebff;fill-opacity:1;stroke:#000000;stroke-width:0;stroke-linecap:round;paint-order:stroke fill markers"
       d="m 35.813357,35.550752 c -0.660771,-0.544664 -1.41599,-1.605309 -1.731744,-2.4321 -0.527712,-1.381795 -0.527998,-1.549871 -0.005,-2.919414 0.516838,-1.35332 2.418733,-3.441501 3.134487,-3.441501 0.38824,0 0.431618,9.352487 0.04449,9.591746 -0.14876,0.09194 -0.797779,-0.267491 -1.442266,-0.798731 z"
       id="path49047"
       transform="scale(0.26458333)" /><path
       style="fill:#60ebff;fill-opacity:1;stroke:#000000;stroke-width:0;stroke-linecap:round;paint-order:stroke fill markers"
       d="m 40.111846,33.855063 c -0.03879,-3.706323 0.05998,-6.915003 0.217707,-7.072732 0.254779,-0.254779 1.905309,1.144036 2.662298,2.256284 1.343142,1.973485 0.835327,4.980024 -1.098006,6.500784 -1.500496,1.18029 -1.754532,0.940176 -1.781999,-1.684336 z"
       id="path49049"
       transform="scale(0.26458333)" /><path
       style="fill:#268997;fill-opacity:1;stroke:#000000;stroke-width:0;stroke-linecap:round;paint-order:stroke fill markers"
       d="M 4.9736942,32.548001 C 4.2123612,31.425303 3.5894525,30.27948 3.5894525,30.001728 c 0,-0.54229 0.4995408,-0.912587 9.9525725,-7.377593 12.590998,-8.611087 24.913254,-16.7504855 25.358604,-16.7504855 1.237262,0 35.172618,23.5728095 35.172618,24.4322595 0,0.382666 -1.857389,3.112324 -2.535113,3.725655 -0.556652,0.503765 -1.328841,0.0411 -13.304152,-7.971352 C 42.731871,15.688046 40.040662,14.031496 38.692297,14.031496 c -1.298285,0 -2.721552,0.890691 -18.82167,11.778747 -7.139829,4.828464 -13.1010244,8.779026 -13.2470997,8.779026 -0.1460751,0 -0.8885002,-0.918571 -1.6498331,-2.041268 z"
       id="path49067"
       transform="scale(0.26458333)" /><path
       style="fill:#268997;fill-opacity:1;stroke:#000000;stroke-width:0;stroke-linecap:round;paint-order:stroke fill markers"
       d=""
       id="path53968"
       transform="scale(0.26458333)" /><path
       style="fill:#268997;fill-opacity:1;stroke:#000000;stroke-width:0;stroke-linecap:round;paint-order:stroke fill markers"
       d="m 57.049393,56.221088 c -0.95591,-0.14638 -0.930336,-0.0081 -1.390624,-7.518744 l -0.164984,-2.692089 h 2.600297 2.600296 v 5.221021 5.221022 l -1.386834,-0.04889 c -0.762758,-0.02689 -1.778926,-0.108934 -2.258151,-0.182318 z"
       id="path53970"
       transform="scale(0.26458333)" /><path
       style="fill:#268997;fill-opacity:1;stroke:#000000;stroke-width:0;stroke-linecap:round;paint-order:stroke fill markers"
       d="m 30.8053,63.386468 c 0.112841,-4.441948 0.292643,-9.949826 0.399559,-12.239729 0.193905,-4.152979 0.196562,-4.16407 1.055196,-4.405238 1.346137,-0.378093 13.338274,-0.29518 13.728142,0.09492 0.210738,0.21086 0.419398,4.875545 0.55832,12.481505 l 0.221825,12.144814 h -8.084104 -8.084104 z m 10.46131,-1.746303 c 1.911829,-1.678608 2.07546,-4.088609 0.391911,-5.772159 -2.396275,-2.396275 -6.742938,-0.730941 -6.742938,2.583417 0,2.565947 1.484287,4.200839 3.813862,4.200839 1.083048,0 1.635404,-0.22034 2.537165,-1.012097 z"
       id="path53972"
       transform="scale(0.26458333)" /><path
       style="fill:#268997;fill-opacity:1;stroke:#000000;stroke-width:0;stroke-linecap:round;paint-order:stroke fill markers"
       d="m 16.968321,51.231276 v -5.221021 l 1.713148,0.0045 c 3.370984,0.0088 3.18156,-0.313798 3.18156,5.417782 v 5.019806 h -2.447354 -2.447354 z"
       id="path53974"
       transform="scale(0.26458333)" /><path
       style="fill:#268997;fill-opacity:1;stroke:#000000;stroke-width:0;stroke-linecap:round;paint-order:stroke fill markers"
       d="m 35.598618,34.986921 c -2.14121,-2.25088 -2.15368,-4.290345 -0.04073,-6.662249 0.687784,-0.772078 1.351236,-1.305462 1.474337,-1.185298 0.271495,0.265018 0.302679,8.728802 0.03315,8.998328 -0.104867,0.104867 -0.764907,-0.412984 -1.466757,-1.150781 z"
       id="path53976"
       transform="scale(0.26458333)" /><path
       style="fill:#268997;fill-opacity:1;stroke:#000000;stroke-width:0;stroke-linecap:round;paint-order:stroke fill markers"
       d="m 40.276388,34.383986 c -0.247037,-1.64736 -0.01083,-6.885029 0.325671,-7.221533 0.405261,-0.40526 2.516223,2.099928 2.789143,3.310021 0.35261,1.563427 -0.136759,3.370957 -1.225009,4.524688 -1.20003,1.272235 -1.627888,1.13341 -1.889805,-0.613176 z"
       id="path53978"
       transform="scale(0.26458333)" /></g></svg>
