<svg xmlns="http://www.w3.org/2000/svg" xml:space="preserve" width="50" height="50" viewBox="0 0 13.229 13.229"><path d="m5.422 12.79-.01-.014-.513-.021-.513-.022-.462-.039-.462-.038-.36-.057-.36-.056-.102-.02-.103-.021-.208-.094-.208-.094-.164-.14-.165-.14-.184-.275-.184-.274-.08-.205-.079-.205-.064-.29-.065-.292-.037-.349-.037-.349-.029-.38-.03-.378-.008-.19-.009-.19-.03-.98-.03-.98.014-.708.015-.707.027-.588.027-.588.038-.455.039-.455.04-.303.041-.304.066-.246.066-.247.1-.234.1-.234.162-.224.162-.224.126-.104.125-.104.184-.092.182-.09.19-.04.188-.04.09-.014L3 .68l.41-.042.411-.042.244-.018.244-.019L6.16.536 8.01.513l.693.044.694.043.333.038.334.038.244.041.245.04.205.076.206.075.18.138.18.139.208.304.209.304.092.272.093.272.053.278.054.278.009.076.008.075.03.266.028.265.025.323.025.322.024.518.023.517.019.829.018.829-.03.929-.03.929-.026.38-.027.379-.051.512-.052.511-.048.236-.049.236-.037.106-.038.105-.139.273-.138.272-.127.168-.127.168-.16.119-.16.119h-.093l-.026.038-.027.039-.183.056-.183.057-.188.038-.187.037-.617.056-.616.056-.72.02-.719.021-1.006.016-1.006.016Zm2.847-.855.157.006.472-.04.472-.04.36-.038.36-.038.115-.02.115-.022.039-.015.039-.016.108-.02.11-.02.147-.08.148-.08.085-.094.085-.093.103-.158.104-.158.085-.266.085-.265.052-.474.053-.474.028-.38.028-.379.025-.834.025-.835V5.85l-.025-.606-.026-.607-.027-.398-.027-.398-.027-.284-.026-.285-.053-.303-.052-.304-.064-.186-.063-.187-.13-.203-.131-.204-.156-.107-.156-.107-.116-.04-.115-.04-.244-.04-.244-.04-.309-.04-.308-.037-.488-.045-.488-.045-1.747-.002H4.9l-.604.045-.603.046-.296.039-.295.039-.27.054-.27.055-.132.058-.132.059-.155.152-.155.153-.097.216-.097.217-.06.24-.058.24-.05.595-.05.594-.026.778-.026.777-.016.683-.015.683.027.74.028.739.012.19.011.189.029.455.028.455.048.35.047.35.066.212.066.213.172.248.172.247.113.072.113.071.261.074.262.075.45.061.45.062.757.05.758.052 1.374-.021 1.374-.021.158.006z" style="fill:#ab2525;stroke-width:.0312127;fill-opacity:1"/><path d="m4.945 4.224.065-.122.058-.06.06-.06L6.5 3.98l1.373-.002.097.117.096.117.023.22.024.22-.202.468-.202.468-.025.025-.025.025-.251.538-.252.538v.035l-.194.4-.195.4-.107.072-.107.072h-.225l-.12-.132-.12-.132-.035-.103-.035-.104-.161-.355-.161-.356-.168-.387-.168-.387-.024-.025-.024-.025-.077-.198-.078-.198-.138-.322-.137-.322v-.15l-.001-.15.064-.123Z" style="fill:#2580ab;fill-opacity:1;stroke-width:.0433394"/><path d="m3.351 5.57.085-.082.11-.015.109-.015h.176l.097.058.097.058.723.848.724.848.248.295.249.295.205.237.205.236.073.016.074.015.064-.024.065-.024.078-.09.079-.091.19-.214.19-.214.037-.044.038-.045.2-.221.198-.221v-.018l.133-.136.133-.137v-.06l.032-.01.032-.008.091-.107.091-.108.2-.222.199-.222v-.017l.132-.137.133-.136v-.066h.062l.067-.095.067-.096.073-.034.074-.035-.02-.022-.02-.022.08-.017.079-.018.122.016.121.015.124.07.124.071.022.108.02.108-.549.624-.55.624-.563.643-.564.642v.013l-.001.013-.076.077-.076.077-.046.051-.046.052-.18.205-.182.206-.05.067-.05.067-.107.07-.106.068-.151.002-.151.001-.08-.028-.078-.03-.075-.07-.074-.07-.522-.617-.522-.616-.152-.18-.151-.18-.322-.373-.323-.372-.075-.09-.076-.09-.115-.141-.115-.141-.142-.159-.143-.158-.078-.104-.079-.104v-.17l.085-.08z" style="fill:#257cab;fill-opacity:1;stroke-width:.0312127"/></svg>